<?xml version="1.0" encoding="utf-8"?>
<svg xmlns="http://www.w3.org/2000/svg" version="1.1" width="1000" height="800">

<line x1="200" y1="400" x2="400" y2="400" stroke="orange" />
<line x1="400" y1="400" x2="600" y2="400" stroke="orange" />
<line x1="400" y1="400" x2="400" y2="600" stroke="orange" />
<circle cx="400" cy="200" r="20" fill="yellow" />
<circle cx="400" cy="200" r="21" fill="none" stroke="black" stroke-width="2" />
<text x="395" y="205" font-size="15" fill="black" >A</text>
<text x="385" y="240" font-size="10" fill="black" >Vecteur propre: </text>
<text x="450" y="240" font-size="10" fill="black" >0</text>
<circle cx="200" cy="400" r="20" fill="yellow" />
<circle cx="200" cy="400" r="21" fill="none" stroke="black" stroke-width="2" />
<text x="195" y="405" font-size="15" fill="black" >B</text>
<text x="185" y="440" font-size="10" fill="black" >Vecteur propre: </text>
<text x="250" y="440" font-size="10" fill="black" >0.288675</text>
<circle cx="400" cy="400" r="20" fill="yellow" />
<circle cx="400" cy="400" r="21" fill="none" stroke="black" stroke-width="2" />
<text x="395" y="405" font-size="15" fill="black" >C</text>
<text x="385" y="440" font-size="10" fill="black" >Vecteur propre: </text>
<text x="450" y="440" font-size="10" fill="black" >0.866025</text>
<circle cx="600" cy="400" r="20" fill="yellow" />
<circle cx="600" cy="400" r="21" fill="none" stroke="black" stroke-width="2" />
<text x="595" y="405" font-size="15" fill="black" >D</text>
<text x="585" y="440" font-size="10" fill="black" >Vecteur propre: </text>
<text x="650" y="440" font-size="10" fill="black" >0.288675</text>
<circle cx="400" cy="600" r="20" fill="yellow" />
<circle cx="400" cy="600" r="21" fill="none" stroke="black" stroke-width="2" />
<text x="395" y="605" font-size="15" fill="black" >E</text>
<text x="385" y="640" font-size="10" fill="black" >Vecteur propre: </text>
<text x="450" y="640" font-size="10" fill="black" >0.288675</text>


</svg>
