<?xml version="1.0" encoding="utf-8"?>
<svg xmlns="http://www.w3.org/2000/svg" version="1.1" width="1000" height="800">

<line x1="380" y1="190" x2="570" y2="380" stroke="orange" />
<line x1="1140" y1="190" x2="950" y2="380" stroke="orange" />
<line x1="190" y1="380" x2="570" y2="380" stroke="orange" />
<line x1="570" y1="380" x2="760" y2="380" stroke="orange" />
<line x1="760" y1="380" x2="950" y2="380" stroke="orange" />
<line x1="950" y1="380" x2="1330" y2="380" stroke="orange" />
<line x1="380" y1="570" x2="570" y2="380" stroke="orange" />
<line x1="1140" y1="570" x2="950" y2="380" stroke="orange" />
<circle cx="380" cy="190" r="20" fill="red" />
<circle cx="380" cy="190" r="21" fill="none" stroke="black" stroke-width="2" />
<text x="375" y="195" fill="black" >A</text>
<text x="365" y="205" fill="black" >0</text>
<text x="340" y="230" fill="black" >1</text>
<circle cx="1140" cy="190" r="20" fill="red" />
<circle cx="1140" cy="190" r="21" fill="none" stroke="black" stroke-width="2" />
<text x="1135" y="195" fill="black" >B</text>
<text x="1125" y="205" fill="black" >1</text>
<text x="1100" y="230" fill="black" >1</text>
<circle cx="190" cy="380" r="20" fill="red" />
<circle cx="190" cy="380" r="21" fill="none" stroke="black" stroke-width="2" />
<text x="185" y="385" fill="black" >C</text>
<text x="175" y="395" fill="black" >2</text>
<text x="150" y="420" fill="black" >1</text>
<circle cx="570" cy="380" r="20" fill="red" />
<circle cx="570" cy="380" r="21" fill="none" stroke="black" stroke-width="2" />
<text x="565" y="385" fill="black" >D</text>
<text x="555" y="395" fill="black" >3</text>
<text x="530" y="420" fill="black" >4</text>
<circle cx="760" cy="380" r="20" fill="red" />
<circle cx="760" cy="380" r="21" fill="none" stroke="black" stroke-width="2" />
<text x="755" y="385" fill="black" >E</text>
<text x="745" y="395" fill="black" >4</text>
<text x="720" y="420" fill="black" >2</text>
<circle cx="950" cy="380" r="20" fill="red" />
<circle cx="950" cy="380" r="21" fill="none" stroke="black" stroke-width="2" />
<text x="945" y="385" fill="black" >F</text>
<text x="935" y="395" fill="black" >5</text>
<text x="910" y="420" fill="black" >4</text>
<circle cx="1330" cy="380" r="20" fill="red" />
<circle cx="1330" cy="380" r="21" fill="none" stroke="black" stroke-width="2" />
<text x="1325" y="385" fill="black" >G</text>
<text x="1315" y="395" fill="black" >6</text>
<text x="1290" y="420" fill="black" >1</text>
<circle cx="380" cy="570" r="20" fill="red" />
<circle cx="380" cy="570" r="21" fill="none" stroke="black" stroke-width="2" />
<text x="375" y="575" fill="black" >H</text>
<text x="365" y="585" fill="black" >7</text>
<text x="340" y="610" fill="black" >1</text>
<circle cx="1140" cy="570" r="20" fill="red" />
<circle cx="1140" cy="570" r="21" fill="none" stroke="black" stroke-width="2" />
<text x="1135" y="575" fill="black" >I</text>
<text x="1125" y="585" fill="black" >8</text>
<text x="1100" y="610" fill="black" >1</text>


</svg>
